<mxfile host="app.diagrams.net" agent="Mozilla/5.0 (Windows NT 10.0; Win64; x64; rv:128.0) Gecko/20100101 Firefox/128.0" version="24.7.6">
  <diagram name="Page-1" id="F2KZz-RCXterqhOgjAan">
    <mxGraphModel dx="2706" dy="2357" grid="1" gridSize="10" guides="1" tooltips="1" connect="1" arrows="1" fold="1" page="1" pageScale="1" pageWidth="850" pageHeight="1100" math="0" shadow="0">
      <root>
        <mxCell id="0" />
        <mxCell id="1" parent="0" />
        <mxCell id="7L2HR3lrxy2jeq0P0oNe-1" value="System" style="shape=umlLifeline;perimeter=lifelinePerimeter;whiteSpace=wrap;html=1;container=0;collapsible=0;recursiveResize=0;outlineConnect=0;rounded=1;shadow=0;comic=0;labelBackgroundColor=none;strokeWidth=1;fontFamily=Verdana;fontSize=12;align=center;" vertex="1" parent="1">
          <mxGeometry x="270" y="80" width="100" height="840" as="geometry" />
        </mxCell>
        <mxCell id="7L2HR3lrxy2jeq0P0oNe-2" value="Receptionist" style="shape=umlLifeline;perimeter=lifelinePerimeter;whiteSpace=wrap;html=1;container=0;collapsible=0;recursiveResize=0;outlineConnect=0;rounded=1;shadow=0;comic=0;labelBackgroundColor=none;strokeWidth=1;fontFamily=Verdana;fontSize=12;align=center;" vertex="1" parent="1">
          <mxGeometry x="30" y="80" width="100" height="840" as="geometry" />
        </mxCell>
        <mxCell id="7L2HR3lrxy2jeq0P0oNe-3" value="The hospital frontdesk" style="shape=note;whiteSpace=wrap;html=1;size=14;verticalAlign=top;align=left;spacingTop=-6;rounded=0;shadow=0;comic=0;labelBackgroundColor=none;strokeWidth=1;fontFamily=Verdana;fontSize=12" vertex="1" parent="1">
          <mxGeometry x="20" y="20" width="120" height="50" as="geometry" />
        </mxCell>
        <mxCell id="7L2HR3lrxy2jeq0P0oNe-4" value="The software and hardware" style="shape=note;whiteSpace=wrap;html=1;size=14;verticalAlign=top;align=left;spacingTop=-6;rounded=0;shadow=0;comic=0;labelBackgroundColor=none;strokeWidth=1;fontFamily=Verdana;fontSize=12" vertex="1" parent="1">
          <mxGeometry x="260" y="20" width="120" height="50" as="geometry" />
        </mxCell>
        <mxCell id="7L2HR3lrxy2jeq0P0oNe-5" value="Return patient record" style="html=1;verticalAlign=bottom;endArrow=none;labelBackgroundColor=none;fontFamily=Verdana;fontSize=12;edgeStyle=elbowEdgeStyle;elbow=vertical;entryX=-0.012;entryY=0.997;entryDx=0;entryDy=0;entryPerimeter=0;endFill=0;startArrow=block;startFill=1;dashed=1;" edge="1" parent="1">
          <mxGeometry relative="1" as="geometry">
            <mxPoint x="85.12" y="300.15" as="sourcePoint" />
            <mxPoint x="315.0000000000001" y="299.9999999999999" as="targetPoint" />
            <Array as="points">
              <mxPoint x="240" y="300" />
            </Array>
          </mxGeometry>
        </mxCell>
        <mxCell id="7L2HR3lrxy2jeq0P0oNe-6" value="Business Manager" style="shape=umlLifeline;perimeter=lifelinePerimeter;whiteSpace=wrap;html=1;container=1;collapsible=0;recursiveResize=0;outlineConnect=0;rounded=1;shadow=0;comic=0;labelBackgroundColor=none;strokeWidth=1;fontFamily=Verdana;fontSize=12;align=center;" vertex="1" parent="1">
          <mxGeometry x="500" y="80" width="110" height="830" as="geometry" />
        </mxCell>
        <mxCell id="7L2HR3lrxy2jeq0P0oNe-7" value="" style="html=1;points=[];perimeter=orthogonalPerimeter;rounded=0;shadow=0;comic=0;labelBackgroundColor=none;strokeWidth=1;fontFamily=Verdana;fontSize=12;align=center;" vertex="1" parent="7L2HR3lrxy2jeq0P0oNe-6">
          <mxGeometry x="50" y="680" width="10" height="50" as="geometry" />
        </mxCell>
        <mxCell id="7L2HR3lrxy2jeq0P0oNe-8" value="Review" style="html=1;verticalAlign=bottom;endArrow=block;labelBackgroundColor=none;fontFamily=Verdana;fontSize=12;edgeStyle=orthogonalEdgeStyle;elbow=vertical;rounded=0;curved=0;exitX=1.073;exitY=0.217;exitDx=0;exitDy=0;exitPerimeter=0;endFill=1;entryX=1.047;entryY=0.253;entryDx=0;entryDy=0;entryPerimeter=0;" edge="1" parent="7L2HR3lrxy2jeq0P0oNe-6">
          <mxGeometry x="-0.1167" relative="1" as="geometry">
            <mxPoint x="61" y="690" as="sourcePoint" />
            <mxPoint x="60" y="720" as="targetPoint" />
            <Array as="points">
              <mxPoint x="175" y="690" />
              <mxPoint x="175" y="720" />
            </Array>
            <mxPoint as="offset" />
          </mxGeometry>
        </mxCell>
        <mxCell id="7L2HR3lrxy2jeq0P0oNe-9" value="The magement person" style="shape=note;whiteSpace=wrap;html=1;size=14;verticalAlign=top;align=left;spacingTop=-6;rounded=0;shadow=0;comic=0;labelBackgroundColor=none;strokeWidth=1;fontFamily=Verdana;fontSize=12" vertex="1" parent="1">
          <mxGeometry x="495" y="20" width="120" height="50" as="geometry" />
        </mxCell>
        <mxCell id="7L2HR3lrxy2jeq0P0oNe-10" value="" style="html=1;points=[];perimeter=orthogonalPerimeter;rounded=0;shadow=0;comic=0;labelBackgroundColor=none;strokeWidth=1;fontFamily=Verdana;fontSize=12;align=center;" vertex="1" parent="1">
          <mxGeometry x="315" y="190" width="10" height="690" as="geometry" />
        </mxCell>
        <mxCell id="7L2HR3lrxy2jeq0P0oNe-11" value="Prompt patient detail search" style="html=1;verticalAlign=bottom;endArrow=none;labelBackgroundColor=none;fontFamily=Verdana;fontSize=12;edgeStyle=elbowEdgeStyle;elbow=vertical;entryX=-0.012;entryY=0.997;entryDx=0;entryDy=0;entryPerimeter=0;endFill=0;startArrow=block;startFill=1;dashed=1;" edge="1" parent="1">
          <mxGeometry relative="1" as="geometry">
            <mxPoint x="85.12" y="220.15" as="sourcePoint" />
            <mxPoint x="315.0000000000001" y="219.99999999999991" as="targetPoint" />
            <Array as="points">
              <mxPoint x="240" y="220" />
            </Array>
          </mxGeometry>
        </mxCell>
        <mxCell id="7L2HR3lrxy2jeq0P0oNe-12" value="" style="html=1;points=[];perimeter=orthogonalPerimeter;rounded=0;shadow=0;comic=0;labelBackgroundColor=none;strokeWidth=1;fontFamily=Verdana;fontSize=12;align=center;" vertex="1" parent="1">
          <mxGeometry x="75" y="190" width="10" height="690" as="geometry" />
        </mxCell>
        <mxCell id="7L2HR3lrxy2jeq0P0oNe-13" value="&lt;div&gt;Search for patient by Name, Address,&lt;/div&gt;&lt;div&gt;Procedure ID, Procedure Datetime, ...&lt;br&gt;&lt;/div&gt;" style="html=1;verticalAlign=bottom;endArrow=block;labelBackgroundColor=none;fontFamily=Verdana;fontSize=12;edgeStyle=elbowEdgeStyle;elbow=vertical;entryX=0.055;entryY=0.669;entryDx=0;entryDy=0;entryPerimeter=0;" edge="1" parent="1">
          <mxGeometry x="-0.0039" relative="1" as="geometry">
            <mxPoint x="84.44999999999999" y="270" as="sourcePoint" />
            <mxPoint x="315" y="270.35" as="targetPoint" />
            <Array as="points">
              <mxPoint x="200" y="270" />
            </Array>
            <mxPoint as="offset" />
          </mxGeometry>
        </mxCell>
        <mxCell id="7L2HR3lrxy2jeq0P0oNe-14" value="&lt;div&gt;Visual confirm: Information is&lt;/div&gt;&lt;div&gt;correct according to the Patient,&lt;/div&gt;&lt;div&gt;or as Business Manager requested&lt;br&gt;&lt;/div&gt;" style="html=1;verticalAlign=bottom;endArrow=block;labelBackgroundColor=none;fontFamily=Verdana;fontSize=12;edgeStyle=orthogonalEdgeStyle;elbow=vertical;rounded=0;curved=0;exitX=1.073;exitY=0.217;exitDx=0;exitDy=0;exitPerimeter=0;endFill=1;entryX=1.047;entryY=0.253;entryDx=0;entryDy=0;entryPerimeter=0;" edge="1" parent="1">
          <mxGeometry x="-0.1167" relative="1" as="geometry">
            <mxPoint x="86" y="390" as="sourcePoint" />
            <mxPoint x="85" y="420" as="targetPoint" />
            <Array as="points">
              <mxPoint x="200" y="390" />
              <mxPoint x="200" y="420" />
            </Array>
            <mxPoint as="offset" />
          </mxGeometry>
        </mxCell>
        <mxCell id="7L2HR3lrxy2jeq0P0oNe-15" value="Selects &quot;Search Patient Record&quot;" style="html=1;verticalAlign=bottom;endArrow=block;labelBackgroundColor=none;fontFamily=Verdana;fontSize=12;edgeStyle=orthogonalEdgeStyle;elbow=vertical;rounded=0;curved=0;exitX=0.961;exitY=0;exitDx=0;exitDy=0;exitPerimeter=0;entryX=-0.033;entryY=0.002;entryDx=0;entryDy=0;entryPerimeter=0;" edge="1" parent="1">
          <mxGeometry x="0.1212" relative="1" as="geometry">
            <mxPoint x="85" y="190" as="sourcePoint" />
            <mxPoint x="315" y="190" as="targetPoint" />
            <Array as="points">
              <mxPoint x="90" y="190" />
            </Array>
            <mxPoint as="offset" />
          </mxGeometry>
        </mxCell>
        <mxCell id="7L2HR3lrxy2jeq0P0oNe-16" value="Edit Patient Information" style="html=1;verticalAlign=bottom;endArrow=block;labelBackgroundColor=none;fontFamily=Verdana;fontSize=12;edgeStyle=elbowEdgeStyle;elbow=vertical;entryX=0.055;entryY=0.669;entryDx=0;entryDy=0;entryPerimeter=0;" edge="1" parent="1">
          <mxGeometry relative="1" as="geometry">
            <mxPoint x="84.99999999999999" y="330" as="sourcePoint" />
            <mxPoint x="315.55" y="330.35" as="targetPoint" />
            <Array as="points">
              <mxPoint x="200.55" y="330" />
            </Array>
          </mxGeometry>
        </mxCell>
        <mxCell id="7L2HR3lrxy2jeq0P0oNe-17" value="Submit Change Request" style="html=1;verticalAlign=bottom;endArrow=block;labelBackgroundColor=none;fontFamily=Verdana;fontSize=12;edgeStyle=elbowEdgeStyle;elbow=vertical;entryX=0.055;entryY=0.669;entryDx=0;entryDy=0;entryPerimeter=0;" edge="1" parent="1">
          <mxGeometry relative="1" as="geometry">
            <mxPoint x="84.99999999999999" y="680" as="sourcePoint" />
            <mxPoint x="315.55" y="680.35" as="targetPoint" />
            <Array as="points">
              <mxPoint x="200.55" y="680" />
            </Array>
          </mxGeometry>
        </mxCell>
        <mxCell id="7L2HR3lrxy2jeq0P0oNe-20" value="&lt;div&gt;Automatic data validation:&lt;/div&gt;&lt;div&gt;Correct datatype&lt;br&gt;&lt;/div&gt;" style="html=1;verticalAlign=bottom;endArrow=block;labelBackgroundColor=none;fontFamily=Verdana;fontSize=12;edgeStyle=orthogonalEdgeStyle;elbow=vertical;rounded=0;curved=0;exitX=1.073;exitY=0.217;exitDx=0;exitDy=0;exitPerimeter=0;endFill=1;entryX=1.047;entryY=0.253;entryDx=0;entryDy=0;entryPerimeter=0;" edge="1" parent="1">
          <mxGeometry x="-0.1167" relative="1" as="geometry">
            <mxPoint x="326" y="700" as="sourcePoint" />
            <mxPoint x="325" y="730" as="targetPoint" />
            <Array as="points">
              <mxPoint x="440" y="700" />
              <mxPoint x="440" y="730" />
            </Array>
            <mxPoint as="offset" />
          </mxGeometry>
        </mxCell>
        <mxCell id="7L2HR3lrxy2jeq0P0oNe-21" value="Forward Change Request" style="html=1;verticalAlign=bottom;endArrow=block;labelBackgroundColor=none;fontFamily=Verdana;fontSize=12;edgeStyle=elbowEdgeStyle;elbow=vertical;entryX=0;entryY=0;entryDx=0;entryDy=0;entryPerimeter=0;" edge="1" parent="1">
          <mxGeometry relative="1" as="geometry">
            <mxPoint x="325" y="760" as="sourcePoint" />
            <mxPoint x="550" y="760" as="targetPoint" />
            <Array as="points">
              <mxPoint x="535.55" y="760" />
            </Array>
          </mxGeometry>
        </mxCell>
        <mxCell id="7L2HR3lrxy2jeq0P0oNe-22" value="Approve change" style="html=1;verticalAlign=bottom;endArrow=none;labelBackgroundColor=none;fontFamily=Verdana;fontSize=12;edgeStyle=elbowEdgeStyle;elbow=vertical;entryX=-0.012;entryY=0.997;entryDx=0;entryDy=0;entryPerimeter=0;endFill=0;startArrow=block;startFill=1;dashed=1;exitX=1.015;exitY=1;exitDx=0;exitDy=0;exitPerimeter=0;" edge="1" parent="1">
          <mxGeometry relative="1" as="geometry">
            <mxPoint x="325" y="810" as="sourcePoint" />
            <mxPoint x="550.0000000000001" y="809.9999999999999" as="targetPoint" />
            <Array as="points">
              <mxPoint x="475" y="810" />
            </Array>
          </mxGeometry>
        </mxCell>
        <mxCell id="7L2HR3lrxy2jeq0P0oNe-23" value="Update Patient Record" style="html=1;verticalAlign=bottom;endArrow=block;labelBackgroundColor=none;fontFamily=Verdana;fontSize=12;edgeStyle=orthogonalEdgeStyle;elbow=vertical;rounded=0;curved=0;exitX=1.073;exitY=0.217;exitDx=0;exitDy=0;exitPerimeter=0;endFill=1;entryX=1.047;entryY=0.253;entryDx=0;entryDy=0;entryPerimeter=0;" edge="1" parent="1">
          <mxGeometry x="-0.1167" relative="1" as="geometry">
            <mxPoint x="326" y="840" as="sourcePoint" />
            <mxPoint x="325" y="870" as="targetPoint" />
            <Array as="points">
              <mxPoint x="440" y="840" />
              <mxPoint x="440" y="870" />
            </Array>
            <mxPoint as="offset" />
          </mxGeometry>
        </mxCell>
        <mxCell id="7L2HR3lrxy2jeq0P0oNe-24" value="Success" style="html=1;verticalAlign=bottom;endArrow=none;labelBackgroundColor=none;fontFamily=Verdana;fontSize=12;edgeStyle=elbowEdgeStyle;elbow=vertical;entryX=-0.012;entryY=0.997;entryDx=0;entryDy=0;entryPerimeter=0;endFill=0;startArrow=block;startFill=1;dashed=1;exitX=1.105;exitY=0.523;exitDx=0;exitDy=0;exitPerimeter=0;" edge="1" parent="1">
          <mxGeometry relative="1" as="geometry">
            <mxPoint x="86" y="880" as="sourcePoint" />
            <mxPoint x="315.0000000000001" y="879.9999999999999" as="targetPoint" />
            <Array as="points">
              <mxPoint x="240" y="880" />
            </Array>
          </mxGeometry>
        </mxCell>
        <mxCell id="7L2HR3lrxy2jeq0P0oNe-45" value="Create &quot;Reason of change&quot; note" style="html=1;verticalAlign=bottom;endArrow=block;labelBackgroundColor=none;fontFamily=Verdana;fontSize=12;edgeStyle=elbowEdgeStyle;elbow=vertical;entryX=0.055;entryY=0.669;entryDx=0;entryDy=0;entryPerimeter=0;" edge="1" parent="1">
          <mxGeometry relative="1" as="geometry">
            <mxPoint x="84.99999999999999" y="450" as="sourcePoint" />
            <mxPoint x="315.55" y="450.35" as="targetPoint" />
            <Array as="points">
              <mxPoint x="200.55" y="450" />
            </Array>
          </mxGeometry>
        </mxCell>
        <mxCell id="7L2HR3lrxy2jeq0P0oNe-46" value="alt" style="shape=umlFrame;whiteSpace=wrap;html=1;pointerEvents=0;recursiveResize=0;container=0;collapsible=0;width=40;height=15;" vertex="1" parent="1">
          <mxGeometry x="70" y="460" width="500" height="180" as="geometry" />
        </mxCell>
        <mxCell id="7L2HR3lrxy2jeq0P0oNe-47" value="" style="html=1;points=[];perimeter=orthogonalPerimeter;rounded=0;shadow=0;comic=0;labelBackgroundColor=none;strokeWidth=1;fontFamily=Verdana;fontSize=12;align=center;" vertex="1" parent="1">
          <mxGeometry x="550" y="570" width="10" height="50" as="geometry" />
        </mxCell>
        <mxCell id="7L2HR3lrxy2jeq0P0oNe-48" value="Review" style="html=1;verticalAlign=bottom;endArrow=block;labelBackgroundColor=none;fontFamily=Verdana;fontSize=12;edgeStyle=orthogonalEdgeStyle;elbow=vertical;rounded=0;curved=0;exitX=1.073;exitY=0.217;exitDx=0;exitDy=0;exitPerimeter=0;endFill=1;entryX=1.047;entryY=0.253;entryDx=0;entryDy=0;entryPerimeter=0;" edge="1" parent="1">
          <mxGeometry x="-0.1167" relative="1" as="geometry">
            <mxPoint x="561" y="580" as="sourcePoint" />
            <mxPoint x="560" y="610" as="targetPoint" />
            <Array as="points">
              <mxPoint x="675" y="580" />
              <mxPoint x="675" y="610" />
            </Array>
            <mxPoint as="offset" />
          </mxGeometry>
        </mxCell>
        <mxCell id="7L2HR3lrxy2jeq0P0oNe-49" value="Submit Change Request" style="html=1;verticalAlign=bottom;endArrow=block;labelBackgroundColor=none;fontFamily=Verdana;fontSize=12;edgeStyle=elbowEdgeStyle;elbow=vertical;entryX=0.055;entryY=0.669;entryDx=0;entryDy=0;entryPerimeter=0;" edge="1" parent="1">
          <mxGeometry relative="1" as="geometry">
            <mxPoint x="84.99999999999999" y="490" as="sourcePoint" />
            <mxPoint x="315.55" y="490.35" as="targetPoint" />
            <Array as="points">
              <mxPoint x="200.55" y="490" />
            </Array>
          </mxGeometry>
        </mxCell>
        <mxCell id="7L2HR3lrxy2jeq0P0oNe-50" value="&lt;div&gt;Automatic data validation:&lt;/div&gt;&lt;div&gt;Correct datatype&lt;br&gt;&lt;/div&gt;" style="html=1;verticalAlign=bottom;endArrow=block;labelBackgroundColor=none;fontFamily=Verdana;fontSize=12;edgeStyle=orthogonalEdgeStyle;elbow=vertical;rounded=0;curved=0;exitX=1.073;exitY=0.217;exitDx=0;exitDy=0;exitPerimeter=0;endFill=1;entryX=1.047;entryY=0.253;entryDx=0;entryDy=0;entryPerimeter=0;" edge="1" parent="1">
          <mxGeometry x="-0.1167" relative="1" as="geometry">
            <mxPoint x="326" y="510" as="sourcePoint" />
            <mxPoint x="325" y="540" as="targetPoint" />
            <Array as="points">
              <mxPoint x="440" y="510" />
              <mxPoint x="440" y="540" />
            </Array>
            <mxPoint as="offset" />
          </mxGeometry>
        </mxCell>
        <mxCell id="7L2HR3lrxy2jeq0P0oNe-51" value="Forward Change Request" style="html=1;verticalAlign=bottom;endArrow=block;labelBackgroundColor=none;fontFamily=Verdana;fontSize=12;edgeStyle=elbowEdgeStyle;elbow=vertical;entryX=0;entryY=0;entryDx=0;entryDy=0;entryPerimeter=0;" edge="1" parent="1">
          <mxGeometry relative="1" as="geometry">
            <mxPoint x="325" y="570" as="sourcePoint" />
            <mxPoint x="550" y="570" as="targetPoint" />
            <Array as="points">
              <mxPoint x="535.55" y="570" />
            </Array>
          </mxGeometry>
        </mxCell>
        <mxCell id="7L2HR3lrxy2jeq0P0oNe-52" value="Deny change with message" style="html=1;verticalAlign=bottom;endArrow=none;labelBackgroundColor=none;fontFamily=Verdana;fontSize=12;edgeStyle=elbowEdgeStyle;elbow=vertical;entryX=-0.012;entryY=0.997;entryDx=0;entryDy=0;entryPerimeter=0;endFill=0;startArrow=block;startFill=1;dashed=1;exitX=1.015;exitY=1;exitDx=0;exitDy=0;exitPerimeter=0;" edge="1" parent="1">
          <mxGeometry relative="1" as="geometry">
            <mxPoint x="325" y="620" as="sourcePoint" />
            <mxPoint x="550.0000000000001" y="619.9999999999999" as="targetPoint" />
            <Array as="points">
              <mxPoint x="475" y="620" />
            </Array>
          </mxGeometry>
        </mxCell>
        <mxCell id="7L2HR3lrxy2jeq0P0oNe-53" value="&lt;div&gt;Fail: denied with message&lt;/div&gt;&lt;div&gt;(i.e., Field xx is incorrect)&lt;/div&gt;" style="html=1;verticalAlign=bottom;endArrow=none;labelBackgroundColor=none;fontFamily=Verdana;fontSize=12;edgeStyle=elbowEdgeStyle;elbow=vertical;entryX=-0.012;entryY=0.997;entryDx=0;entryDy=0;entryPerimeter=0;endFill=0;startArrow=block;startFill=1;dashed=1;exitX=1.105;exitY=0.523;exitDx=0;exitDy=0;exitPerimeter=0;" edge="1" parent="1">
          <mxGeometry relative="1" as="geometry">
            <mxPoint x="86" y="630" as="sourcePoint" />
            <mxPoint x="315.0000000000001" y="629.9999999999999" as="targetPoint" />
            <Array as="points">
              <mxPoint x="240" y="630" />
            </Array>
          </mxGeometry>
        </mxCell>
      </root>
    </mxGraphModel>
  </diagram>
</mxfile>
